<mxfile host="app.diagrams.net" agent="Mozilla/5.0 (Windows NT 10.0; Win64; x64) AppleWebKit/537.36 (KHTML, like Gecko) Chrome/135.0.0.0 Safari/537.36" version="26.2.14">
  <diagram name="Page-1" id="Rq7RT8E8Oeu4Q0KsSAsS">
    <mxGraphModel dx="2505" dy="884" grid="1" gridSize="10" guides="1" tooltips="1" connect="1" arrows="1" fold="1" page="1" pageScale="1" pageWidth="827" pageHeight="1169" math="0" shadow="0">
      <root>
        <mxCell id="0" />
        <mxCell id="1" parent="0" />
        <mxCell id="Egt-2BTSgUNOCflCf9J_-15" style="rounded=0;orthogonalLoop=1;jettySize=auto;html=1;" edge="1" parent="1" source="Egt-2BTSgUNOCflCf9J_-1" target="Egt-2BTSgUNOCflCf9J_-4">
          <mxGeometry relative="1" as="geometry" />
        </mxCell>
        <mxCell id="Egt-2BTSgUNOCflCf9J_-16" style="rounded=0;orthogonalLoop=1;jettySize=auto;html=1;" edge="1" parent="1" source="Egt-2BTSgUNOCflCf9J_-1" target="Egt-2BTSgUNOCflCf9J_-3">
          <mxGeometry relative="1" as="geometry" />
        </mxCell>
        <mxCell id="Egt-2BTSgUNOCflCf9J_-18" style="rounded=0;orthogonalLoop=1;jettySize=auto;html=1;" edge="1" parent="1" source="Egt-2BTSgUNOCflCf9J_-1" target="Egt-2BTSgUNOCflCf9J_-8">
          <mxGeometry relative="1" as="geometry" />
        </mxCell>
        <mxCell id="Egt-2BTSgUNOCflCf9J_-19" style="rounded=0;orthogonalLoop=1;jettySize=auto;html=1;" edge="1" parent="1" source="Egt-2BTSgUNOCflCf9J_-1" target="Egt-2BTSgUNOCflCf9J_-9">
          <mxGeometry relative="1" as="geometry">
            <mxPoint x="550" y="480" as="targetPoint" />
          </mxGeometry>
        </mxCell>
        <mxCell id="Egt-2BTSgUNOCflCf9J_-20" style="rounded=0;orthogonalLoop=1;jettySize=auto;html=1;" edge="1" parent="1" source="Egt-2BTSgUNOCflCf9J_-1" target="Egt-2BTSgUNOCflCf9J_-6">
          <mxGeometry relative="1" as="geometry" />
        </mxCell>
        <mxCell id="Egt-2BTSgUNOCflCf9J_-21" style="rounded=0;orthogonalLoop=1;jettySize=auto;html=1;" edge="1" parent="1" source="Egt-2BTSgUNOCflCf9J_-1" target="Egt-2BTSgUNOCflCf9J_-10">
          <mxGeometry relative="1" as="geometry" />
        </mxCell>
        <mxCell id="Egt-2BTSgUNOCflCf9J_-22" style="rounded=0;orthogonalLoop=1;jettySize=auto;html=1;" edge="1" parent="1" source="Egt-2BTSgUNOCflCf9J_-1" target="Egt-2BTSgUNOCflCf9J_-11">
          <mxGeometry relative="1" as="geometry" />
        </mxCell>
        <mxCell id="Egt-2BTSgUNOCflCf9J_-24" style="rounded=0;orthogonalLoop=1;jettySize=auto;html=1;entryX=1;entryY=0.5;entryDx=0;entryDy=0;" edge="1" parent="1" source="Egt-2BTSgUNOCflCf9J_-1" target="Egt-2BTSgUNOCflCf9J_-12">
          <mxGeometry relative="1" as="geometry" />
        </mxCell>
        <mxCell id="Egt-2BTSgUNOCflCf9J_-1" value="Base Upgrades (available from beginning)" style="ellipse;whiteSpace=wrap;html=1;" vertex="1" parent="1">
          <mxGeometry x="330" y="450" width="120" height="80" as="geometry" />
        </mxCell>
        <mxCell id="Egt-2BTSgUNOCflCf9J_-3" value="Damage" style="rounded=1;whiteSpace=wrap;html=1;" vertex="1" parent="1">
          <mxGeometry x="-90" y="550" width="120" height="60" as="geometry" />
        </mxCell>
        <mxCell id="Egt-2BTSgUNOCflCf9J_-4" value="HP" style="rounded=1;whiteSpace=wrap;html=1;" vertex="1" parent="1">
          <mxGeometry x="120" y="170" width="120" height="60" as="geometry" />
        </mxCell>
        <mxCell id="Egt-2BTSgUNOCflCf9J_-32" style="edgeStyle=none;rounded=0;orthogonalLoop=1;jettySize=auto;html=1;exitX=0.5;exitY=1;exitDx=0;exitDy=0;" edge="1" parent="1" source="Egt-2BTSgUNOCflCf9J_-5" target="Egt-2BTSgUNOCflCf9J_-31">
          <mxGeometry relative="1" as="geometry" />
        </mxCell>
        <mxCell id="Egt-2BTSgUNOCflCf9J_-5" value="Fire Rate" style="rounded=1;whiteSpace=wrap;html=1;" vertex="1" parent="1">
          <mxGeometry x="-20" y="680" width="120" height="60" as="geometry" />
        </mxCell>
        <mxCell id="Egt-2BTSgUNOCflCf9J_-6" value="Spread" style="rounded=1;whiteSpace=wrap;html=1;" vertex="1" parent="1">
          <mxGeometry x="650" y="490" width="120" height="60" as="geometry" />
        </mxCell>
        <mxCell id="Egt-2BTSgUNOCflCf9J_-7" value="HP Interest" style="rounded=1;whiteSpace=wrap;html=1;" vertex="1" parent="1">
          <mxGeometry x="330" y="200" width="120" height="60" as="geometry" />
        </mxCell>
        <mxCell id="Egt-2BTSgUNOCflCf9J_-33" style="edgeStyle=none;rounded=0;orthogonalLoop=1;jettySize=auto;html=1;exitX=0;exitY=1;exitDx=0;exitDy=0;" edge="1" parent="1" source="Egt-2BTSgUNOCflCf9J_-8" target="Egt-2BTSgUNOCflCf9J_-31">
          <mxGeometry relative="1" as="geometry">
            <mxPoint x="80" y="900" as="targetPoint" />
          </mxGeometry>
        </mxCell>
        <mxCell id="Egt-2BTSgUNOCflCf9J_-8" value="Shot Speed" style="rounded=1;whiteSpace=wrap;html=1;" vertex="1" parent="1">
          <mxGeometry x="160" y="760" width="120" height="60" as="geometry" />
        </mxCell>
        <mxCell id="Egt-2BTSgUNOCflCf9J_-9" value="Drop Rate" style="rounded=1;whiteSpace=wrap;html=1;" vertex="1" parent="1">
          <mxGeometry x="630" y="280" width="120" height="60" as="geometry" />
        </mxCell>
        <mxCell id="Egt-2BTSgUNOCflCf9J_-34" style="edgeStyle=none;rounded=0;orthogonalLoop=1;jettySize=auto;html=1;exitX=0;exitY=0.75;exitDx=0;exitDy=0;" edge="1" parent="1" source="Egt-2BTSgUNOCflCf9J_-10" target="Egt-2BTSgUNOCflCf9J_-31">
          <mxGeometry relative="1" as="geometry" />
        </mxCell>
        <mxCell id="Egt-2BTSgUNOCflCf9J_-10" value="Pierces" style="rounded=1;whiteSpace=wrap;html=1;" vertex="1" parent="1">
          <mxGeometry x="310" y="810" width="120" height="60" as="geometry" />
        </mxCell>
        <mxCell id="Egt-2BTSgUNOCflCf9J_-36" style="edgeStyle=none;rounded=0;orthogonalLoop=1;jettySize=auto;html=1;" edge="1" parent="1" source="Egt-2BTSgUNOCflCf9J_-11" target="Egt-2BTSgUNOCflCf9J_-35">
          <mxGeometry relative="1" as="geometry" />
        </mxCell>
        <mxCell id="Egt-2BTSgUNOCflCf9J_-11" value="Bounces" style="rounded=1;whiteSpace=wrap;html=1;" vertex="1" parent="1">
          <mxGeometry x="590" y="690" width="120" height="60" as="geometry" />
        </mxCell>
        <mxCell id="Egt-2BTSgUNOCflCf9J_-12" value="Multishot" style="rounded=1;whiteSpace=wrap;html=1;" vertex="1" parent="1">
          <mxGeometry x="-40" y="260" width="120" height="60" as="geometry" />
        </mxCell>
        <mxCell id="Egt-2BTSgUNOCflCf9J_-17" style="rounded=0;orthogonalLoop=1;jettySize=auto;html=1;" edge="1" parent="1" source="Egt-2BTSgUNOCflCf9J_-1" target="Egt-2BTSgUNOCflCf9J_-5">
          <mxGeometry relative="1" as="geometry" />
        </mxCell>
        <mxCell id="Egt-2BTSgUNOCflCf9J_-23" style="rounded=0;orthogonalLoop=1;jettySize=auto;html=1;" edge="1" parent="1" source="Egt-2BTSgUNOCflCf9J_-1" target="Egt-2BTSgUNOCflCf9J_-7">
          <mxGeometry relative="1" as="geometry" />
        </mxCell>
        <mxCell id="Egt-2BTSgUNOCflCf9J_-26" style="edgeStyle=none;rounded=0;orthogonalLoop=1;jettySize=auto;html=1;shape=link;fillColor=#a20025;strokeColor=#6F0000;strokeWidth=2;" edge="1" parent="1" source="Egt-2BTSgUNOCflCf9J_-10" target="Egt-2BTSgUNOCflCf9J_-11">
          <mxGeometry relative="1" as="geometry" />
        </mxCell>
        <mxCell id="Egt-2BTSgUNOCflCf9J_-27" value="Mutually Exclusive" style="edgeLabel;html=1;align=center;verticalAlign=middle;resizable=0;points=[];" vertex="1" connectable="0" parent="Egt-2BTSgUNOCflCf9J_-26">
          <mxGeometry x="-0.0618" y="-1" relative="1" as="geometry">
            <mxPoint as="offset" />
          </mxGeometry>
        </mxCell>
        <mxCell id="Egt-2BTSgUNOCflCf9J_-31" value="Laser" style="rhombus;whiteSpace=wrap;html=1;" vertex="1" parent="1">
          <mxGeometry x="30" y="870" width="80" height="80" as="geometry" />
        </mxCell>
        <mxCell id="Egt-2BTSgUNOCflCf9J_-35" value="Wall Bounce" style="rhombus;whiteSpace=wrap;html=1;" vertex="1" parent="1">
          <mxGeometry x="910" y="720" width="80" height="80" as="geometry" />
        </mxCell>
      </root>
    </mxGraphModel>
  </diagram>
</mxfile>
